<svg xmlns="http://www.w3.org/2000/svg" viewBox="0 0 1800 2700" width="1800" height="2700">
  <!-- Background gradient -->
  <defs>
    <linearGradient id="bgGradient" x1="0%" y1="0%" x2="0%" y2="100%">
      <stop offset="0%" style="stop-color:#2c3e50;stop-opacity:1" />
      <stop offset="100%" style="stop-color:#1a1a2e;stop-opacity:1" />
    </linearGradient>
    
    <linearGradient id="heartGradient" x1="0%" y1="0%" x2="100%" y2="100%">
      <stop offset="0%" style="stop-color:#ff9a9e;stop-opacity:1" />
      <stop offset="50%" style="stop-color:#f6416c;stop-opacity:1" />
      <stop offset="100%" style="stop-color:#e83e8c;stop-opacity:1" />
    </linearGradient>
    
    <filter id="softGlow" height="300%" width="300%" x="-75%" y="-75%">
      <feMorphology operator="dilate" radius="3" in="SourceAlpha" result="thicken" />
      <feGaussianBlur in="thicken" stdDeviation="10" result="blurred" />
      <feFlood flood-color="#e83e8c" result="glowColor" />
      <feComposite in="glowColor" in2="blurred" operator="in" result="softGlow_colored" />
      <feComposite in="softGlow_colored" in2="SourceGraphic" operator="over" result="softGlow_colored_noised"/>
      <feGaussianBlur in="softGlow_colored_noised" stdDeviation="3" result="softGlow_colored_noised_blurred"/>
      <feComposite in="softGlow_colored_noised_blurred" in2="SourceGraphic" operator="over" />
    </filter>
  </defs>

  <!-- Main background -->
  <rect width="1800" height="2700" fill="url(#bgGradient)" />
  
  <!-- Decorative elements - abstract paths symbolizing the journey -->
  <path d="M0,1350 C600,1150 1200,1550 1800,1350" stroke="#ffffff" stroke-width="1.5" fill="none" opacity="0.2" />
  <path d="M0,1400 C600,1600 1200,1200 1800,1400" stroke="#ffffff" stroke-width="1.5" fill="none" opacity="0.2" />
  <path d="M0,1450 C600,1250 1200,1650 1800,1450" stroke="#ffffff" stroke-width="1.5" fill="none" opacity="0.2" />
  
  <!-- Stylized heart with broken/healing lines -->
  <g transform="translate(900, 1050) scale(0.8)" filter="url(#softGlow)">
    <path d="M0,200 C-20,140 -100,50 -200,100 C-300,140 -300,250 -250,300 C-200,350 -100,400 0,500 C100,400 200,350 250,300 C300,250 300,140 200,100 C100,50 20,140 0,200 Z" 
          fill="url(#heartGradient)" 
          stroke="#ffffff" 
          stroke-width="8"
          stroke-dasharray="15,10" />
          
    <!-- Lines inside heart representing healing/growth -->
    <path d="M-100,200 L100,200" stroke="#ffffff" stroke-width="3" fill="none" opacity="0.7" />
    <path d="M-90,250 L90,250" stroke="#ffffff" stroke-width="3" fill="none" opacity="0.7" />
    <path d="M-70,300 L70,300" stroke="#ffffff" stroke-width="3" fill="none" opacity="0.7" />
    <path d="M-50,350 L50,350" stroke="#ffffff" stroke-width="3" fill="none" opacity="0.7" />
    <path d="M-20,400 L20,400" stroke="#ffffff" stroke-width="3" fill="none" opacity="0.7" />
  </g>
  
  <!-- Book Title -->
  <text x="900" y="1600" font-family="Georgia, serif" font-size="160" font-weight="bold" fill="#ffffff" text-anchor="middle" stroke="#e83e8c" stroke-width="2">LOVE</text>
  
  <!-- Subtitle -->
  <text x="900" y="1720" font-family="Georgia, serif" font-size="58" font-weight="bold" fill="#ffffff" text-anchor="middle">THE TRUTHS, THE MYTHS, THE LESSONS</text>
  
  <!-- Book description -->
  <text x="900" y="1850" font-family="Georgia, serif" font-style="italic" font-size="44" fill="#ffffff" text-anchor="middle">Everything I Thought Love Was—</text>
  <text x="900" y="1910" font-family="Georgia, serif" font-style="italic" font-size="44" fill="#ffffff" text-anchor="middle">And What I Know Now</text>
  
  <!-- Author name -->
  <text x="900" y="2200" font-family="Georgia, serif" font-size="65" font-weight="bold" fill="#ffffff" text-anchor="middle">LIN</text>
  
  <!-- Small decorative elements at top -->
  <circle cx="900" cy="450" r="5" fill="#ffffff" opacity="0.6" />
  <circle cx="920" cy="430" r="4" fill="#ffffff" opacity="0.5" />
  <circle cx="880" cy="430" r="4" fill="#ffffff" opacity="0.5" />
  <circle cx="940" cy="410" r="3" fill="#ffffff" opacity="0.4" />
  <circle cx="860" cy="410" r="3" fill="#ffffff" opacity="0.4" />
  <circle cx="960" cy="400" r="2" fill="#ffffff" opacity="0.3" />
  <circle cx="840" cy="400" r="2" fill="#ffffff" opacity="0.3" />
</svg>
